<?xml version="1.0" encoding="utf-8"?>
<!-- Generator: Adobe Illustrator 27.0.0, SVG Export Plug-In . SVG Version: 6.00 Build 0)  -->
<svg version="1.1" id="图层_1" xmlns="http://www.w3.org/2000/svg" xmlns:xlink="http://www.w3.org/1999/xlink" x="0px" y="0px"
	 viewBox="0 0 244.4 244.4" style="enable-background:new 0 0 244.4 244.4;" xml:space="preserve">
<style type="text/css">
	.st0{fill:#3FD2C7;}
	.st1{fill:#00458B;}
	.st2{fill:#99DDFF;}
</style>
<g id="root">
	<g id="content" transform="matrix(0.6225,0,0,0.6225,119.1596,238.4935)">
		<g>
			<g>
				<g>
					<g>
						<path class="st0" d="M84.8-203.1c-3,5.4-7.1,10.7-9.9,14.2c-0.2,0.3-0.5,0.6-0.7,0.9c-8.2,10.8-20.3,20-32.7,25.4
							c-0.2,0.1-0.5,0.2-0.7,0.3c-8,3.6-16.4,5.8-25.1,7c-23.7,2.9-47.7-3.5-66.6-18.1c-0.3-0.3-0.7-0.6-1.1-0.9
							c-8.8-6.7-18.7-17.6-24.3-28.9l-38.5,25.8c2.3,6.2,4.8,12.3,7.6,18.3c0.2,0.6,0.5,1.1,0.7,1.6c1.9,4.2,3.8,8.3,6,12.3
							c0.6,1.1,1.2,2.3,1.8,3.4c9.8,19.1,21.1,37.5,33.5,55c0.5,0.8,1,1.5,1.6,2.2c3.2,4.6,6.5,9.1,9.8,13.6c0.7,1,1.4,2,2.1,2.9
							c2.5,3.4,5,6.7,7.6,9.9c0.2,0.2,0.3,0.4,0.5,0.6c0.6,0.7,1.2,1.5,1.7,2.2c0.8,1,1.6,2,2.4,3c1.9,2.5,3.9,4.9,5.8,7.3
							c0.2,0.2,0.3,0.4,0.5,0.6c0.5,0.6,1,1.2,1.5,1.8c0.6,0.8,1.3,1.5,1.9,2.3c1.2,1.5,2.4,3,3.7,4.4c0.9,1,1.8,2.1,2.6,3.1
							c1.1,1.3,2.2,2.7,3.4,4c0.7,0.8,1.4,1.6,2.1,2.4c1.1,1.4,2.2,2.7,3.4,4c0.9,1.1,1.9,2.1,2.8,3.2c0.2,0.2,0.3,0.4,0.5,0.6
							c0.3,0.4,0.6,0.7,0.9,1.1c2.5,2.9,5,5.8,7.6,8.5C-2-8.2-1.2-7.4-0.4-6.4c1.4,1.7,3,3.2,4.6,4.8C5-2.2,5.7-2.8,6.4-3.5
							C7.5-4.8,8.6-6,9.8-7.3c0.9-0.9,1.8-1.9,2.6-2.9c0.8-1,1.7-2,2.6-2.9c1.7-1.7,3.3-3.5,4.8-5.3c0.8-1,1.7-2.1,2.6-3.1
							c1.4-1.6,2.8-3.2,4.2-4.8c0.5-0.6,0.9-1.1,1.4-1.7c1.5-1.8,3.1-3.6,4.6-5.4c0.9-1,1.7-2.1,2.6-3.1c2.1-2.4,4-4.8,6-7.3
							c0.7-0.9,1.5-1.8,2.2-2.8c1.9-2.3,3.7-4.6,5.5-6.9c0.5-0.6,0.9-1.2,1.4-1.8c1.9-2.4,3.8-4.8,5.6-7.3c1-1.3,2-2.7,3-4
							c2.3-3,4.6-6,6.7-9.1c0.5-0.7,1-1.3,1.5-2c6.9-9.5,13.5-19.1,19.8-29c0.4-0.6,0.7-1.2,1.1-1.8c4.1-6.5,8.1-13.1,11.8-19.9
							c0.7-1.2,1.4-2.4,2.1-3.7c8.3-14.5,15.7-29.9,21.5-45.7L84.8-203.1z"/>
						<g>
							<path class="st1" d="M-14.4-296c-0.7,0.4-1.3,0.9-2,1.3c-0.5,0.3-1,0.7-1.6,1c-0.3,0.2-0.6,0.3-0.8,0.5
								c-3.2,2.1-3.2,2.1-6.3,4.1c-1.3,0.9-2.6,1.7-3.9,2.6c-0.5,0.3-1,0.7-1.6,1c-77.6,51.1-77.6,51.1-129.4,85.2
								c-0.5,0.3-1.1,0.7-1.6,1c-1.3,0.9-2.6,1.7-3.9,2.6c-2.4,1.6-4.7,3.1-7.1,4.7c-1.1,0.7-2.2,1.5-3.3,2.2
								c-0.6,0.4-1.1,0.7-1.6,1.1c-0.2,0.2-0.5,0.3-0.7,0.5s-0.5,0.3-0.7,0.5c-0.5,0.3-1,0.6-1.4,0.9c-1.3,0.9-1.8,1.2-3.9,2.5
								c-2.1,1.3-4.2,2.6-5.7,3.6c-1.5,0.9-1.6,2.7-1.5,8.3c0.1,5.7,0.1,2.1,0.1,3.1c0,2,0.1,3.9,0.2,5.9c0.1,2.2,0.1,4.5,0.2,6.7
								c0.1,4.8,0.2,9.6,0.4,14.5c0.4,0,0.4,0,8.6-5.4c0.6-0.4,1.1-0.7,1.6-1.1c1.2-0.8,2.3-1.5,3.4-2.3c2.4-1.6,4.9-3.2,7.3-4.8
								c1.3-0.9,2.6-1.7,3.9-2.6c0.5-0.3,1-0.7,1.6-1c0.8-0.5,0.8-0.5,15.7-10.3c0.2-0.2,0.5-0.3,0.8-0.5c0.5-0.3,1-0.7,1.6-1
								c1.3-0.9,2.6-1.7,3.9-2.6c2.4-1.6,4.8-3.2,7.2-4.7c1.1-0.8,2.3-1.5,3.4-2.3c0.6-0.3,1.1-0.7,1.7-1.1c3.7-2.4,7.3-4.8,11-7.2
								l38.9-26c5.6-3.6,5.6-3.6,17.1-11.2c2.4-1.6,4.8-3.2,7.2-4.8c1.3-0.9,2.6-1.7,3.9-2.6c0.5-0.3,1-0.7,1.6-1
								c0.8-0.5,0.8-0.5,3.9-2.6c0.5-0.3,1-0.7,1.6-1c1.3-0.9,2.6-1.7,3.9-2.6c2.4-1.6,4.7-3.1,7.1-4.7c1.3-0.9,2.7-1.8,4.1-2.7
								c0.3-0.2,0.5-0.4,0.8-0.5c3.6-2.4,7.3-4.8,11-7.3c2.7-1.8,5.4-3.6,8-5.3c2-1.3,3.9-2.5,5.9-3.8c0.2-0.2,0.5-0.3,0.7-0.5
								c1.2-0.8,2.3-1.6,3.5-2.3c0.1,0,0.1-0.1,0.2-0.1L-14.4-296z"/>
							<path class="st1" d="M199.4-179.8c-1.3-0.8-18.4-12.2-10.7-7s-0.9-0.7-1.4-1c-0.2-0.2-0.5-0.3-0.7-0.5
								c-0.4-0.2-0.4-0.2-0.7-0.5c-0.5-0.3-1-0.6-1.5-1c-1.1-0.7-2.2-1.5-3.3-2.2c-2.4-1.6-4.8-3.2-7.2-4.7
								c-1.3-0.9-2.6-1.7-3.9-2.6c-0.5-0.3-1-0.7-1.6-1c-0.8-0.5-0.8-0.5-65.9-43.4c-0.2-0.2-0.5-0.3-0.8-0.5
								c-0.5-0.3-1.1-0.7-1.6-1c-1.3-0.9-2.6-1.7-3.9-2.6c-2.3-1.5-4.7-3.1-7-4.6c-5.6-3.7-11.3-7.4-16.9-11.1
								c-5.9-3.9-11.9-7.8-17.8-11.7c-2.4-1.5-4.7-3.1-7-4.6c-1.3-0.9-2.6-1.7-3.9-2.6c-0.5-0.3-1-0.7-1.6-1
								c-0.8-0.5-0.8-0.5-3.2-2.1c-0.2-0.2-0.5-0.3-0.8-0.5c-0.5-0.3-1.1-0.7-1.6-1c-1.3-0.9-2.6-1.7-3.9-2.6
								c-2.4-1.6-4.7-3.1-7.1-4.7c-0.7-0.5-1.4-0.9-2.2-1.4L8.7-267.6c0.5,0.3,1,0.7,1.5,1c0.6,0.4,1.1,0.7,1.7,1.1
								c1.2,0.8,2.3,1.5,3.5,2.3c2.5,1.6,4.9,3.2,7.4,4.9c1.3,0.9,2.6,1.7,3.9,2.6c0.5,0.3,1,0.7,1.6,1c0.8,0.5,0.8,0.5,29,19.1
								c0.5,0.3,1,0.7,1.6,1c1.3,0.9,2.6,1.7,3.9,2.6c2.4,1.6,4.8,3.1,7.2,4.7c0.8,0.6,1.7,1.1,2.5,1.7c1.1,0.7,2.1,1.4,3.2,2.1
								c2.4,1.6,4.7,3.2,7.2,4.7c0.4,0.2,0.8,0.5,1.2,0.8c0.6,0.3,1.1,0.7,1.7,1c0.3,0.2,0.7,0.4,1,0.6s0.6,0.4,0.9,0.6
								c0.8,0.5,0.8,0.5,1.3,0.9l0,0l38.9,26v0.1c0,0,0-0.1,0.1-0.1c2.8,1.7,5.5,3.6,8.3,5.4c0.6,0.4,1.1,0.7,1.6,1.1
								c1.2,0.8,2.3,1.5,3.4,2.3c2.4,1.6,4.9,3.2,7.3,4.8c1.6,1,3.1,2,4.7,3.1c1.3,0.9,2.7,1.8,4.1,2.7c1.7,1.2,3.5,2.3,5.2,3.5
								c0.3,0.2,0.6,0.4,0.9,0.6c3.8,2.5,7.7,5.1,11.5,7.6c2.6,1.8,5.3,3.5,8,5.2c2,1.2,3.9,2.5,5.8,3.8c0.2,0.2,0.5,0.3,0.7,0.5
								c1.1,0.8,2.3,1.5,3.4,2.3c0.4,0.3,0.9,0.6,1.3,0.9c0.2,0.2,0.4,0.3,0.6,0.4c0.9,0.6,1.9,1.3,2.9,1.8c0.2,0.2,0.5,0.3,0.7,0.4
								c0.4,0.2,0.9,0.5,1.3,0.7c0.2-4.6,0.3-9.2,0.4-13.8c0.1-2.2,0,1.4,0.2-6.7C200-168.8,200.7-178.9,199.4-179.8z"/>
						</g>
					</g>
					<path class="st0" d="M1-372c23.2-0.4,46.7,4.2,67.4,15c0.6,0.4,1.3,0.7,2,1c8.5,4.3,16.2,9.9,23.4,16.1
						c0.2,0.2,0.4,0.4,0.6,0.6c3.7,3.2,7.3,6.5,10.4,10.1c0.4,0.4,0.8,0.9,1.1,1.3c2.2,2.4,4.2,5,6.2,7.6c0.2,0.2,0.3,0.4,0.4,0.6
						c3.8,5,6.9,10.2,10,15.6c0.1,0.2,0.2,0.5,0.4,0.7c8.1,14.6,12.9,31.4,14.3,48c0,0.3,0.1,0.7,0.1,1.1c0.4,5.5,0.4,11.1,0.1,16.6
						c0,0.2,0,0.4,0,0.7c-0.1,1.4-0.1,1.4-0.8,2.1c-6.5-4.3-12.9-8.5-19.4-12.8c-0.5-0.3-1-0.7-1.6-1c-0.3-0.2-0.5-0.3-0.8-0.5
						c-1.3-0.9-2.7-1.8-4-2.7c-0.3-0.2-0.6-0.3-0.8-0.5c-0.6-0.4-1.1-0.7-1.7-1.1c-1.3-0.9-2.7-1.7-4-2.6c-2.3-1.5-4.6-3-6.9-4.4
						c-3.2-1.8-5.8-3.4-7-7c-0.4-1.4-0.7-2.8-0.9-4.3c-0.3-1.6-0.8-3-1.3-4.5c-0.1-0.3-0.2-0.6-0.3-0.8c-2.8-7.3-6.6-14.3-11.4-20.5
						c-0.2-0.2-0.3-0.4-0.4-0.6c-1.7-2.3-3.6-4.5-5.6-6.6c-0.6-0.6-1.2-1.3-1.7-2c-2.9-3.4-6.5-6.2-10-8.9c-0.2-0.2-0.4-0.3-0.6-0.5
						c-5-3.8-10.5-6.9-16.2-9.6c-0.2-0.1-0.5-0.2-0.7-0.3c-10.2-4.7-21.7-7.6-32.9-7.7c-0.3,0-0.6,0-0.8,0
						c-23.8-0.2-45.5,7.1-63.2,22.8c-0.2,0.1-0.3,0.3-0.5,0.4c-3.9,3.4-7.3,7.1-10.4,11.3c-0.4,0.6-0.8,1.1-1.2,1.6
						c-2.3,3.1-4.3,6.3-6.2,9.6c-0.2,0.2-0.3,0.5-0.4,0.7c-3.4,6-5.7,12.4-7.6,19c-0.1,0.3-0.2,0.6-0.3,0.9
						c-0.2,0.8-0.2,0.8-0.3,1.5c-0.5,2-2.1,2.8-3.7,3.9c-0.4,0.2-0.8,0.5-1.3,0.8c-0.4,0.3-0.9,0.6-1.3,0.8
						c-0.9,0.6-1.9,1.2-2.8,1.8c-2.3,1.4-4.5,2.9-6.8,4.4c-1.3,0.9-2.7,1.7-4,2.6c-0.6,0.3-1.1,0.7-1.6,1.1
						c-0.3,0.2-0.6,0.3-0.8,0.5c-0.3,0.2-0.5,0.4-0.8,0.6c-2.2,1.4-4.3,2.8-6.5,4.2c-0.2,0.2-0.5,0.4-0.8,0.5
						c-5,3.3-10.1,6.6-15.1,9.9c-0.8-1.1-0.8-2.1-0.8-3.4c0-0.2,0-0.5,0-0.8c-1.2-31.1,8.8-61.7,30.9-88c0.2-0.2,0.4-0.4,0.6-0.7
						c3.1-3.6,6.4-7.2,10-10.3c0.6-0.5,1.1-1,1.7-1.5c6.3-5.7,13.4-10.6,20.8-14.8c0.2-0.2,0.5-0.3,0.7-0.4
						C-44.6-366-21.7-371.5,1-372z"/>
					<path class="st2" d="M-7.1-239.2c0.2,0,0.5,0,0.7,0c0.4,0,0.4,0,0.8,0c0.9,0,1.7,0,2.5,0c0.6,0,1.2,0,1.8,0c1.2,0,2.4,0,3.6,0
						c1.6,0,3.2,0,4.7,0c1.2,0,2.4,0,3.6,0c0.6,0,1.2,0,1.7,0c0.8,0,1.6,0,2.4,0c0.4,0,0.4,0,0.7,0c1.7,0,1.7,0,2,0.3
						c0,0.6,0,1.1,0,1.7c0,0.4,0,0.7,0,1.1c0,0.4,0,0.8,0,1.2s0,0.7,0,1.1c0,1.3,0,2.6,0,3.9c0,2.9,0,5.8,0,8.8c5.8,0,11.7,0,17.8,0
						c0,8.7,0,17.4,0,26.3c-5.8,0-11.7,0-17.8,0c0,6,0,11.9,0,18.1c-8.8,0-17.6,0-26.6,0c0-5.9,0-11.9,0-18.1c-5.8,0-11.7,0-17.8,0
						c0-8.7,0-17.4,0-26.3c5.8,0,11.7,0,17.8,0c0-5.8,0-5.8,0-11.7c0-0.7,0-1.4,0-2.2c0-0.4,0-0.8,0-1.2c0-0.5,0-0.5,0-1.1
						c0-0.3,0-0.6,0-0.9C-9-239.5-8.3-239.2-7.1-239.2z"/>
				</g>
			</g>
		</g>
		<g id="icon_name_and_slogan_gap">
		</g>
	</g>
</g>
</svg>
